<?xml version="1.0" encoding="UTF-8"?>
<svg width="276px" height="60px" viewBox="0 0 276 60" version="1.1" xmlns="http://www.w3.org/2000/svg" xmlns:xlink="http://www.w3.org/1999/xlink">
    <!-- Generator: Sketch 54.1 (76490) - https://sketchapp.com -->
    <title>Group</title>
    <desc>Created with Sketch.</desc>
    <g id="Page-1" stroke="none" stroke-width="1" fill="none" fill-rule="evenodd">
        <g id="Group" transform="translate(1.000000, 1.000000)">
            <path d="M111,17.5757576 C111,15.2583498 111.4446,13.0841852 112.333815,11.0531987 C113.223029,9.02221207 114.432604,7.24512546 115.962575,5.72188552 C117.492547,4.19864558 119.277487,2.99439275 121.317449,2.10909091 C123.357411,1.22378906 125.541184,0.781144781 127.868833,0.781144781 L153.68207,0.781144781 L153.68207,11.9905724 L127.868833,11.9905724 C127.084232,11.9905724 126.351949,12.1337808 125.671961,12.420202 C124.991974,12.7066232 124.396994,13.1037012 123.887004,13.6114478 C123.377013,14.1191945 122.97818,14.7115567 122.690493,15.3885522 C122.402806,16.0655477 122.258965,16.7946089 122.258965,17.5757576 C122.258965,18.3569063 122.402806,19.0924769 122.690493,19.7824916 C122.97818,20.4725063 123.377013,21.0713779 123.887004,21.5791246 C124.396994,22.0868712 124.991974,22.4839492 125.671961,22.7703704 C126.351949,23.0567916 127.084232,23.2 127.868833,23.2 L139.127798,23.2 C141.455447,23.2 143.645758,23.6361348 145.698797,24.5084175 C147.751835,25.3807002 149.543314,26.5784436 151.073285,28.1016835 C152.603257,29.6249234 153.806293,31.4085195 154.682431,33.4525253 C155.558568,35.496531 155.996631,37.677205 155.996631,39.9946128 C155.996631,42.3120206 155.558568,44.4861851 154.682431,46.5171717 C153.806293,48.5481583 152.603257,50.3252449 151.073285,51.8484848 C149.543314,53.3717248 147.751835,54.5759776 145.698797,55.4612795 C143.645758,56.3465813 141.455447,56.7892256 139.127798,56.7892256 L114.138387,56.7892256 L114.138387,45.579798 L139.127798,45.579798 C139.912399,45.579798 140.644682,45.4365895 141.324669,45.1501684 C142.004656,44.8637472 142.599636,44.4666692 143.109627,43.9589226 C143.619617,43.4511759 144.01845,42.8588137 144.306137,42.1818182 C144.593824,41.5048227 144.737665,40.7757615 144.737665,39.9946128 C144.737665,39.2134641 144.593824,38.4844029 144.306137,37.8074074 C144.01845,37.1304119 143.619617,36.5380497 143.109627,36.030303 C142.599636,35.5225564 142.004656,35.1254784 141.324669,34.8390572 C140.644682,34.5526361 139.912399,34.4094276 139.127798,34.4094276 L127.868833,34.4094276 C125.541184,34.4094276 123.357411,33.9667833 121.317449,33.0814815 C119.277487,32.1961796 117.492547,30.9919268 115.962575,29.4686869 C114.432604,27.9454469 113.223029,26.1618508 112.333815,24.1178451 C111.4446,22.0738394 111,19.8931653 111,17.5757576 Z M219.195909,56.7892256 L207.976173,56.7892256 L207.976173,16.7946128 C207.976173,16.0134641 207.825794,15.2844029 207.52503,14.6074074 C207.224266,13.9304119 206.818895,13.3380497 206.308905,12.830303 C205.798914,12.3225564 205.203934,11.9254784 204.523947,11.6390572 C203.84396,11.3526361 203.111677,11.2094276 202.327076,11.2094276 C201.542475,11.2094276 200.810192,11.3526361 200.130205,11.6390572 C199.450217,11.9254784 198.855237,12.3225564 198.345247,12.830303 C197.835256,13.3380497 197.436423,13.9304119 197.148736,14.6074074 C196.86105,15.2844029 196.717208,16.0134641 196.717208,16.7946128 L196.717208,56.7892256 L185.458243,56.7892256 L185.458243,16.7946128 C185.458243,16.0134641 185.314402,15.2844029 185.026715,14.6074074 C184.739028,13.9304119 184.340195,13.3380497 183.830205,12.830303 C183.320214,12.3225564 182.725234,11.9254784 182.045247,11.6390572 C181.365259,11.3526361 180.632976,11.2094276 179.848375,11.2094276 C179.063775,11.2094276 178.331492,11.3526361 177.651504,11.6390572 C176.971517,11.9254784 176.376537,12.3225564 175.866546,12.830303 C175.356556,13.3380497 174.957723,13.9304119 174.670036,14.6074074 C174.382349,15.2844029 174.238508,16.0134641 174.238508,16.7946128 L174.238508,56.7892256 L162.979543,56.7892256 L162.979543,16.7946128 C162.979543,14.477205 163.417605,12.296531 164.293742,10.2525253 C165.16988,8.20851952 166.372917,6.42492344 167.902888,4.9016835 C169.43286,3.37844356 171.224338,2.18070021 173.277377,1.30841751 C175.330415,0.436134808 177.520726,0 179.848375,0 C181.940644,0 183.954423,0.371040061 185.889771,1.11313131 C187.82512,1.85522257 189.564292,2.9292859 191.107341,4.33535354 C192.650389,2.9292859 194.383023,1.85522257 196.305295,1.11313131 C198.227567,0.371040061 200.234807,0 202.327076,0 C204.654725,0 206.845036,0.436134808 208.898075,1.30841751 C210.951113,2.18070021 212.742592,3.37844356 214.272563,4.9016835 C215.802535,6.42492344 217.005571,8.20851952 217.881709,10.2525253 C218.757846,12.296531 219.195909,14.477205 219.195909,16.7946128 L219.195909,56.7892256 Z M274,51.1259259 C271.384664,53.3391805 268.468608,55.0381534 265.251745,56.2228956 C262.034882,57.4076378 258.687302,58 255.208905,58 C252.541262,58 249.971733,57.6549978 247.500241,56.9649832 C245.028748,56.2749685 242.720749,55.2985473 240.576173,54.0356902 C238.431598,52.7728332 236.470125,51.2626351 234.691697,49.5050505 C232.913268,47.747466 231.396396,45.7946235 230.141035,43.6464646 C228.885674,41.4983058 227.911476,39.1874422 227.218412,36.7138047 C226.525348,34.2401672 226.178821,31.6754342 226.178821,29.0195286 C226.178821,26.3636231 226.525348,23.811909 227.218412,21.3643098 C227.911476,18.9167105 228.885674,16.618866 230.141035,14.4707071 C231.396396,12.3225482 232.913268,10.3697058 234.691697,8.61212121 C236.470125,6.85453667 238.431598,5.350848 240.576173,4.1010101 C242.720749,2.8511722 245.028748,1.88126046 247.500241,1.19124579 C249.971733,0.501231118 252.541262,0.156228956 255.208905,0.156228956 C258.687302,0.156228956 262.034882,0.748591158 265.251745,1.93333333 C268.468608,3.11807551 271.384664,4.81704842 274,7.03030303 L268.115523,16.7946128 C266.415555,15.0760857 264.454083,13.7286244 262.231047,12.7521886 C260.008011,11.7757527 257.667321,11.2875421 255.208905,11.2875421 C252.750489,11.2875421 250.44249,11.7562243 248.284838,12.6936027 C246.127185,13.6309811 244.237633,14.9003287 242.616125,16.5016835 C240.994617,18.1030383 239.713121,19.977767 238.7716,22.1259259 C237.83008,24.2740848 237.359326,26.5719294 237.359326,29.0195286 C237.359326,31.4931661 237.83008,33.8105391 238.7716,35.9717172 C239.713121,38.1328952 240.994617,40.0206429 242.616125,41.6350168 C244.237633,43.2493908 246.127185,44.5252478 248.284838,45.4626263 C250.44249,46.4000047 252.750489,46.8686869 255.208905,46.8686869 C256.621186,46.8686869 257.994217,46.6994405 259.328039,46.3609428 C260.66186,46.022445 261.930279,45.5537628 263.133333,44.9548822 L263.133333,29.0195286 L274,29.0195286 L274,51.1259259 Z" id="SMG-Copy-3" stroke="#B8FBFF" fill-rule="nonzero"></path>
            <g id="gamepad-console-copy" transform="translate(0.000000, 1.000000)" fill-rule="nonzero" stroke="#B8FBFF">
                <path d="M96.7963483,8.20290053 C91.3275663,2.73449172 84.7294391,0 76.999668,0 L28.0001405,0 C20.2715186,0 13.6712844,2.73430018 8.2034602,8.20290053 C2.73429519,13.6715009 0,20.2704063 0,27.9996169 C0,35.7297852 2.73506137,42.328116 8.2034602,47.7963333 C13.6712844,53.2645506 20.2707525,56 28.0001405,56 C35.0005108,56 41.1607677,53.6656451 46.484359,48.9992338 L58.5154494,48.9992338 C63.8386577,53.6656451 69.9989146,56 76.999668,56 C84.7280983,56 91.3275663,53.2658914 96.7963483,47.7963333 C102.265322,42.3269668 105,35.7299767 105,27.9996169 C105,20.2704063 102.26513,13.6715009 96.7963483,8.20290053 Z M74.9497058,39.9484773 C73.5822684,41.3158399 71.9323026,42 69.9992338,42 C68.068272,42 66.4177316,41.3158399 65.0508688,39.9484773 C63.6834314,38.5824555 63,36.9320054 63,34.9998085 C63,33.06742 63.6834314,31.4177361 65.0508688,30.0509481 C66.4177316,28.6849263 68.068272,28 69.9992338,28 C71.9323026,28 73.5822684,28.6849263 74.9497058,30.0509481 C76.3158024,31.4177361 77,33.06742 77,34.9998085 C77,36.9320054 76.3158024,38.5824555 74.9497058,39.9484773 Z M88.9482858,25.9492947 C87.5824555,27.3159846 85.9320054,28 83.9996169,28 C82.0672285,28 80.4175445,27.3167508 79.0509481,25.9492947 C77.6835855,24.581647 77,22.9324249 77,20.9995211 C77,19.0677667 77.6835855,17.4179699 79.0509481,16.0508969 C80.4175445,14.6834407 82.0672285,14 83.9996169,14 C85.9320054,14 87.5824555,14.6834407 88.9482858,16.0508969 C90.3156483,17.4179699 91,19.0677667 91,20.9995211 C91,22.9322333 90.3164145,24.5822217 88.9482858,25.9492947 Z" id="Shape"></path>
            </g>
            <path d="M44.5084769,34.2575773 C44.1803483,34.5860889 43.7614241,34.7498659 43.2505549,34.7498659 L32.750057,34.7498659 L32.750057,45.2505555 C32.750057,45.7612332 32.5864716,46.1807321 32.2581515,46.5079029 C31.9300229,46.836223 31.5112902,47 31.0002295,47 L23.9999614,47 C23.4896669,47 23.070168,46.836223 22.7420394,46.5079029 C22.4142939,46.1807321 22.2507085,45.7612332 22.2507085,45.2505555 L22.2507085,34.7498659 L11.7492529,34.7498659 C11.2389584,34.7498659 10.8194595,34.5860889 10.4913309,34.2575773 C10.1635854,33.930598 10,33.5110991 10,33.0004214 L10,26.0001532 C10,25.4898587 10.1635854,25.0703598 10.4913309,24.7422312 C10.8194595,24.4139111 11.2389584,24.2503256 11.7492529,24.2503256 L22.2503254,24.2503256 L22.2503254,13.7498276 C22.2503254,13.2395331 22.4139108,12.8200342 22.7416563,12.4919056 C23.0695933,12.1633939 23.4892838,12 23.9995783,12 L30.9998464,12 C31.5107156,12 31.9296398,12.1635854 32.2577684,12.4919056 C32.5860885,12.8200342 32.7496739,13.2395331 32.7496739,13.7498276 L32.7496739,24.2503256 L43.2501718,24.2503256 C43.761041,24.2503256 44.1799652,24.4139111 44.5080938,24.7422312 C44.8364139,25.0703598 44.9999993,25.4898587 44.9999993,26.0001532 L44.9999993,33.0004214 C45.0003824,33.5110991 44.836797,33.930598 44.5084769,34.2575773 Z" id="Path" stroke="#DD1D43"></path>
        </g>
    </g>
</svg>